<svg width="52" height="52" viewBox="0 0 52 52" fill="none" xmlns="http://www.w3.org/2000/svg">
<g clip-path="url(#clip0_774_8)">
<path d="M0.216858 13.253C0.216858 11.5619 0.888667 9.93999 2.08449 8.74416C3.28032 7.54833 4.90221 6.87653 6.59336 6.87653H44.8524C46.5436 6.87653 48.1654 7.54833 49.3613 8.74416C50.5571 9.93999 51.2289 11.5619 51.2289 13.253V16.4413H0.216858V13.253ZM0.216858 22.8178V38.7591C0.216858 40.4502 0.888667 42.0721 2.08449 43.2679C3.28032 44.4637 4.90221 45.1356 6.59336 45.1356H44.8524C46.5436 45.1356 48.1654 44.4637 49.3613 43.2679C50.5571 42.0721 51.2289 40.4502 51.2289 38.7591V22.8178H0.216858ZM9.78162 29.1943H12.9699C13.8154 29.1943 14.6264 29.5302 15.2243 30.1281C15.8222 30.726 16.1581 31.537 16.1581 32.3825V35.5708C16.1581 36.4164 15.8222 37.2273 15.2243 37.8252C14.6264 38.4231 13.8154 38.7591 12.9699 38.7591H9.78162C8.93604 38.7591 8.12509 38.4231 7.52718 37.8252C6.92927 37.2273 6.59336 36.4164 6.59336 35.5708V32.3825C6.59336 31.537 6.92927 30.726 7.52718 30.1281C8.12509 29.5302 8.93604 29.1943 9.78162 29.1943Z" fill="white"/>
</g>
<defs>
<clipPath id="clip0_774_8">
<rect width="51.012" height="51.012" fill="white" transform="translate(0.216858 0.5)"/>
</clipPath>
</defs>
</svg>
