<svg width="43" height="44" viewBox="0 0 43 44" fill="none" xmlns="http://www.w3.org/2000/svg">
<path d="M35.5956 34.4854V32.6997C35.5956 32.4745 35.5063 32.2585 35.3472 32.0992C35.1881 31.9398 34.9722 31.8501 34.747 31.8497V19.9503C34.8586 19.9503 34.9692 19.9284 35.0723 19.8856C35.1754 19.8429 35.2691 19.7803 35.348 19.7014C35.4269 19.6225 35.4895 19.5287 35.5323 19.4256C35.575 19.3225 35.5969 19.212 35.5969 19.1003V17.4003H36.8685C37.8499 17.4003 38.6759 16.7482 38.9269 15.7767C39.1812 14.7806 38.7582 13.7891 37.8731 13.305L25.0314 6.27921C24.1022 5.7679 23.0589 5.49979 21.9983 5.49979C20.9377 5.49979 19.8944 5.7679 18.9652 6.27921L6.12879 13.3044C5.24236 13.7891 4.81873 14.7819 5.07304 15.7767C5.32137 16.7476 6.14739 17.4003 7.13143 17.4003H8.40099V19.1003C8.40099 19.3255 8.49035 19.5415 8.64945 19.7009C8.80856 19.8603 9.02439 19.95 9.24958 19.9503V31.8497C9.02416 31.8497 8.80799 31.9393 8.6486 32.0987C8.48921 32.2581 8.39966 32.4743 8.39966 32.6997V34.4854C7.44054 34.6826 6.57872 35.2045 5.95945 35.963C5.34018 36.7216 5.00132 37.6705 5 38.6498L5 39.4998H38.9966V38.6498C38.9952 37.6703 38.6562 36.7213 38.0366 35.9627C37.4171 35.2041 36.555 34.6824 35.5956 34.4854ZM10.0982 33.5498H15.197V34.3998H10.1008L10.0982 33.5498ZM16.0469 31.8497V19.9503C16.1585 19.9503 16.269 19.9284 16.3722 19.8856C16.4753 19.8429 16.569 19.7803 16.6479 19.7014C16.7268 19.6225 16.7894 19.5287 16.8321 19.4256C16.8748 19.3225 16.8968 19.212 16.8968 19.1003V17.4003H17.7487V19.1003C17.7487 19.212 17.7707 19.3225 17.8134 19.4256C17.8561 19.5287 17.9187 19.6225 17.9977 19.7014C18.0766 19.7803 18.1703 19.8429 18.2734 19.8856C18.3765 19.9284 18.487 19.9503 18.5986 19.9503V31.8497C18.3732 31.8497 18.1571 31.9393 17.9977 32.0987C17.8383 32.2581 17.7487 32.4743 17.7487 32.6997V34.3998H16.8988V32.6997C16.8988 32.4744 16.8094 32.2583 16.6501 32.0989C16.4909 31.9396 16.2749 31.8499 16.0496 31.8497H16.0469ZM20.2965 31.8497V19.9503H23.6961V31.8497H20.2965ZM24.548 18.2497H19.4486V17.3997H24.548V18.2497ZM19.4486 33.5498H24.548V34.3998H19.4486V33.5498ZM25.3973 31.8497V19.9503C25.5089 19.9503 25.6194 19.9284 25.7225 19.8856C25.8257 19.8429 25.9194 19.7803 25.9983 19.7014C26.0772 19.6225 26.1398 19.5287 26.1825 19.4256C26.2252 19.3225 26.2472 19.212 26.2472 19.1003V17.4003H27.0971V19.1003C27.0971 19.212 27.1191 19.3225 27.1618 19.4256C27.2045 19.5287 27.2671 19.6225 27.3461 19.7014C27.425 19.7803 27.5187 19.8429 27.6218 19.8856C27.7249 19.9284 27.8354 19.9503 27.947 19.9503V31.8497C27.7216 31.8497 27.5055 31.9393 27.3461 32.0987C27.1867 32.2581 27.0971 32.4743 27.0971 32.6997V34.3998H26.2479V32.6997C26.2479 32.4743 26.1583 32.2581 25.9989 32.0987C25.8396 31.9393 25.6234 31.8497 25.398 31.8497H25.3973ZM28.797 33.5498H33.8958V34.3998H28.797V33.5498ZM33.0465 31.8497H29.6469V19.9503H33.0465V31.8497ZM33.8965 18.2497H28.797V17.3997H33.8958L33.8965 18.2497ZM7.12877 15.7003C6.84989 15.7003 6.75295 15.4845 6.71975 15.3557C6.69651 15.2654 6.64472 14.9572 6.94285 14.7965L19.7812 7.7707C20.4604 7.39657 21.2232 7.20037 21.9986 7.20037C22.774 7.20037 23.5369 7.39657 24.2161 7.7707L37.0538 14.7965C37.3519 14.9592 37.3001 15.2654 37.2769 15.3557C37.2443 15.4845 37.1441 15.7003 36.8678 15.7003H7.12877ZM15.1996 17.4003V18.2497H10.1008V17.3997L15.1996 17.4003ZM10.9501 19.9503H14.3497V31.8497H10.9501V19.9503ZM6.84657 37.7998C7.02278 37.3031 7.34832 36.8731 7.77854 36.5687C8.20876 36.2643 8.7226 36.1005 9.24958 36.0998H34.747C35.2741 36.1004 35.7881 36.2641 36.2185 36.5685C36.6488 36.8729 36.9745 37.303 37.1507 37.7998H6.84657ZM21.9983 13.9996C22.5026 13.9996 22.9956 13.8501 23.4149 13.5699C23.8342 13.2897 24.161 12.8914 24.354 12.4255C24.5469 11.9595 24.5974 11.4468 24.4991 10.9521C24.4007 10.4575 24.1578 10.0031 23.8012 9.6465C23.4447 9.28987 22.9903 9.04701 22.4957 8.94861C22.0011 8.85022 21.4885 8.90072 21.0226 9.09372C20.5567 9.28673 20.1584 9.61357 19.8783 10.0329C19.5981 10.4523 19.4486 10.9453 19.4486 11.4496C19.4493 12.1257 19.7181 12.7739 20.1961 13.252C20.6742 13.7301 21.3223 13.9989 21.9983 13.9996ZM21.9983 10.5996C22.1664 10.5996 22.3307 10.6495 22.4705 10.7429C22.6103 10.8363 22.7192 10.969 22.7835 11.1243C22.8479 11.2797 22.8647 11.4506 22.8319 11.6155C22.7991 11.7803 22.7181 11.9318 22.5993 12.0507C22.4804 12.1695 22.329 12.2505 22.1641 12.2833C21.9992 12.3161 21.8284 12.2993 21.6731 12.2349C21.5178 12.1706 21.385 12.0616 21.2916 11.9219C21.1982 11.7821 21.1484 11.6177 21.1484 11.4496C21.1487 11.2244 21.2384 11.0084 21.3978 10.8492C21.5571 10.69 21.7731 10.6005 21.9983 10.6003V10.5996Z" fill="#BFBFBF"/>
</svg>
